<svg width="20" height="20" viewBox="0 0 20 20" fill="none" xmlns="http://www.w3.org/2000/svg">
<g clip-path="url(#clip0_0_110)">
<path d="M5.55556 16.6666C4.66667 16.6666 3.77778 15.8889 3.33333 15.5555C1.11111 14 0.444444 13.4444 0 13.1111V17.7778C0 18.3913 0.497569 18.8889 1.11111 18.8889H10C10.6135 18.8889 11.1111 18.3913 11.1111 17.7778V13.1111C10.6667 13.4444 10 14 7.77778 15.5555C7.33333 15.8889 6.44444 16.6666 5.55556 16.6666ZM10 9.99997H1.11111C0.497569 9.99997 0 10.4975 0 11.1111V11.6666C0.888889 12.3333 0.777778 12.3333 4 14.6666C4.33333 14.8889 5 15.5555 5.55556 15.5555C6.11111 15.5555 6.77778 14.8889 7.11111 14.7778C10.3333 12.4444 10.2222 12.4444 11.1111 11.7778V11.1111C11.1111 10.4975 10.6135 9.99997 10 9.99997ZM18.8889 6.66664H7.77778C7.16424 6.66664 6.66667 7.16421 6.66667 7.77775V8.88886H10C11.1531 8.88886 12.1038 9.7715 12.2122 10.8965L12.2222 10.8889V15.5555H18.8889C19.5024 15.5555 20 15.058 20 14.4444V7.77775C20 7.16421 19.5024 6.66664 18.8889 6.66664ZM17.7778 11.1111H15.5556V8.88886H17.7778V11.1111ZM5.55556 7.77775C5.55556 6.5524 6.55243 5.55553 7.77778 5.55553H15.5556V2.2222C15.5556 1.60865 15.058 1.11108 14.4444 1.11108H3.33333C2.71979 1.11108 2.22222 1.60865 2.22222 2.2222V8.88886H5.55556V7.77775Z" fill="white"/>
</g>
<defs>
<clipPath id="clip0_0_110">
<rect width="20" height="20" fill="white"/>
</clipPath>
</defs>
</svg>
