<svg width="124" height="30" viewBox="0 0 124 30" fill="none" xmlns="http://www.w3.org/2000/svg">
<g clip-path="url(#clip0_0_59)">
<path d="M121.75 25.9057C121.213 25.9108 120.701 26.1282 120.324 26.5102C119.948 26.8923 119.738 27.4078 119.74 27.9442C119.743 28.4806 119.958 28.9942 120.338 29.3726C120.718 29.751 121.233 29.9634 121.769 29.9634C122.306 29.9634 122.82 29.751 123.201 29.3726C123.581 28.9942 123.796 28.4806 123.798 27.9442C123.801 27.4078 123.591 26.8923 123.214 26.5102C122.838 26.1282 122.325 25.9108 121.789 25.9057H121.75ZM121.75 29.7311C121.398 29.737 121.052 29.6384 120.757 29.4478C120.461 29.2572 120.228 28.9832 120.088 28.6604C119.948 28.3376 119.907 27.9805 119.97 27.6343C120.033 27.2881 120.197 26.9683 120.441 26.7154C120.686 26.4625 121 26.2878 121.344 26.2134C121.688 26.139 122.046 26.1683 122.374 26.2975C122.701 26.4267 122.982 26.6501 123.183 26.9394C123.383 27.2286 123.493 27.5708 123.499 27.9226V27.9525C123.509 28.414 123.335 28.8606 123.016 29.1939C122.696 29.5273 122.258 29.7202 121.796 29.7302H121.75L121.75 29.7311ZM113.962 25.3514H109.553V18.4472C109.553 16.8009 109.524 14.6815 107.26 14.6815C104.964 14.6815 104.613 16.4753 104.613 18.3274V25.3509H100.204V11.1532H104.436V13.0935H104.495C104.919 12.3693 105.531 11.7735 106.266 11.3697C107.002 10.9658 107.833 10.7689 108.671 10.8001C113.14 10.8001 113.964 13.7392 113.964 17.5628L113.962 25.3514ZM95.2295 9.21248C94.7235 9.21257 94.2288 9.06261 93.808 8.78157C93.3872 8.50052 93.0593 8.10101 92.8655 7.63356C92.6718 7.16611 92.6211 6.65171 92.7197 6.15541C92.8183 5.65911 93.0619 5.20321 93.4196 4.84534C93.7774 4.48748 94.2332 4.24374 94.7294 4.14493C95.2257 4.04612 95.7401 4.0967 96.2077 4.29025C96.6752 4.48381 97.0748 4.81165 97.356 5.23233C97.6372 5.653 97.7873 6.14762 97.7874 6.65362C97.7875 6.9896 97.7214 7.32229 97.5928 7.63271C97.4643 7.94314 97.2759 8.22521 97.0384 8.46282C96.8009 8.70043 96.5189 8.88893 96.2085 9.01756C95.8981 9.14619 95.5655 9.21242 95.2295 9.21248V9.21248ZM97.4338 25.3514H93.0205V11.1532H97.4338V25.3514ZM116.16 0.00159915H90.8052C90.2297 -0.00489506 89.6752 0.217345 89.2635 0.619485C88.8518 1.02162 88.6166 1.57076 88.6096 2.14623V27.6058C88.6164 28.1815 88.8514 28.731 89.2631 29.1336C89.6748 29.5361 90.2294 29.7588 90.8052 29.7527H116.16C116.736 29.7599 117.293 29.5379 117.706 29.1353C118.119 28.7328 118.356 28.1827 118.364 27.6058V2.14439C118.356 1.56778 118.119 1.01802 117.706 0.615893C117.292 0.213763 116.736 -0.00784255 116.16 -0.00023779V0.00159915ZM76.6102 14.58C74.4059 14.58 73.0833 16.0519 73.0833 18.1965C73.0833 20.3411 74.4055 21.8144 76.6102 21.8144C78.815 21.8144 80.1404 20.3448 80.1404 18.1965C80.1404 16.0482 78.8173 14.58 76.6102 14.58V14.58ZM84.1991 25.3431H80.1404V23.4603H80.0802C79.571 24.1451 78.9106 24.7032 78.1504 25.0909C77.3901 25.4787 76.5506 25.6857 75.6973 25.6958C71.4613 25.6958 68.671 22.6387 68.671 18.3154C68.671 14.3449 71.1403 10.699 75.1995 10.699C77.024 10.699 78.7282 11.1982 79.728 12.5819H79.7858V4.39786H84.1986L84.1991 25.3431ZM63.0104 16.5956C63.0189 16.2379 62.9546 15.8823 62.8216 15.5502C62.6885 15.2181 62.4894 14.9164 62.2363 14.6635C61.9833 14.4106 61.6815 14.2117 61.3493 14.0789C61.0171 13.9461 60.6614 13.882 60.3037 13.8907C59.5334 13.8428 58.7751 14.0995 58.1923 14.6055C57.6095 15.1115 57.2489 15.8262 57.1883 16.5956H63.0104ZM66.745 22.8871C66.0124 23.7755 65.0913 24.4899 64.0486 24.9784C63.0059 25.467 61.8676 25.7175 60.7161 25.7119C56.3074 25.7119 52.7778 22.7691 52.7778 18.2121C52.7778 13.6551 56.307 10.7137 60.7161 10.7137C64.8368 10.7137 67.4209 13.6528 67.4209 18.2121V19.5944H57.1883C57.3157 20.3784 57.7221 21.0898 58.3327 21.5978C58.9432 22.1057 59.7168 22.3759 60.5108 22.3585C61.1383 22.3547 61.7549 22.1939 62.3044 21.8909C62.8539 21.5878 63.3189 21.1522 63.6571 20.6236L66.745 22.8871ZM22.9183 11.1495H27.152V13.0898H27.2121C27.635 12.3653 28.2467 11.7693 28.982 11.3653C29.7172 10.9614 30.5483 10.7648 31.3866 10.7964C35.8572 10.7964 36.6802 13.7378 36.6802 17.5591V25.345H32.2715V18.4422C32.2715 16.7945 32.2412 14.6765 29.9754 14.6765C27.6838 14.6765 27.3302 16.4707 27.3302 18.3223V25.3431H22.9215L22.9183 11.1495ZM38.9158 4.39924H43.3244V16.9203L48.3209 11.1417H53.7261L47.9397 17.7148L53.6044 25.3518H48.0633L43.3832 18.3338H43.3253V25.3509H38.9167L38.9158 4.39924ZM16.0651 11.1482H20.4738V25.3459H16.0651V11.1482ZM18.2695 4.08971C18.7753 4.0898 19.2697 4.23987 19.6902 4.52095C20.1107 4.80202 20.4384 5.20148 20.6319 5.66881C20.8254 6.13613 20.876 6.65034 20.7773 7.14641C20.6785 7.64249 20.4349 8.09814 20.0772 8.45577C19.7196 8.81339 19.2639 9.05692 18.7678 9.15557C18.2717 9.25421 17.7575 9.20354 17.2902 9.00995C16.8229 8.81637 16.4235 8.48857 16.1425 8.068C15.8615 7.64744 15.7115 7.153 15.7115 6.64719C15.7115 6.3113 15.7777 5.9787 15.9062 5.66838C16.0348 5.35806 16.2232 5.07611 16.4607 4.83862C16.6983 4.60113 16.9803 4.41275 17.2906 4.28426C17.6009 4.15576 17.9336 4.08965 18.2695 4.08971V4.08971ZM0.951233 4.40245H5.54037V21.1186H14.0362V25.3537H0.951233V4.40245ZM122.072 28.0632C122.147 28.0639 122.222 28.0492 122.292 28.0198C122.361 27.9904 122.424 27.9471 122.476 27.8924C122.528 27.8378 122.569 27.773 122.595 27.7021C122.621 27.6312 122.632 27.5558 122.627 27.4804C122.627 27.0671 122.378 26.8696 121.866 26.8696H121.04V29.0335H121.351V28.0903H121.733L121.742 28.1017L122.334 29.0335H122.667L122.029 28.0691L122.072 28.0632ZM121.712 27.8464H121.352V27.1148H121.809C122.045 27.1148 122.314 27.1534 122.314 27.4625C122.314 27.8179 122.041 27.8464 121.71 27.8464" fill="white" fill-opacity="0.5"/>
</g>
<defs>
<clipPath id="clip0_0_59">
<rect width="122.847" height="30" fill="white" transform="translate(0.951233)"/>
</clipPath>
</defs>
</svg>
